<?xml version="1.0" encoding="utf-8"?>
<!-- Generator: Adobe Illustrator 23.0.1, SVG Export Plug-In . SVG Version: 6.00 Build 0)  -->
<svg version="1.1" id="Calque_1" xmlns="http://www.w3.org/2000/svg" xmlns:xlink="http://www.w3.org/1999/xlink" x="0px" y="0px"
	 viewBox="0 0 155 45.6" style="enable-background:new 0 0 155 45.6;" xml:space="preserve">
<g>
	<path style="fill:#FFFFFF;" d="M14.8,26.3c-1.1,0.6-2.3,1.1-3.6,1.5c-1.3,0.4-2.5,0.6-3.6,0.6c-0.8,0-1.8-0.4-3-1.2
		c-1.2-0.8-2.1-1.7-3-2.8c-0.8-1.1-1.2-2-1.2-2.9c0-2.6,0.5-5.3,1.3-8.3c0.9-3,2.1-5.5,3.9-7.5c1.7-2.1,3.8-3.1,6.2-3.1
		c1.3,0,2.5,0.4,3.5,1.1c1.1,0.7,1.9,1.6,2.6,2.7c0.6,1.1,0.9,2.1,0.9,3c0,1-0.3,1.7-1,2.3c-0.7,0.5-1.6,0.8-2.6,0.8
		c-0.8,0-1.5-0.1-2.3-0.4c0-0.4,0-1,0-1.8c0-0.9-0.1-1.5-0.2-2c-0.1-0.4-0.4-0.6-0.8-0.6c-0.8,0-1.7,0.8-2.5,2.5
		c-0.9,1.7-1.6,3.7-2.2,6.2c-0.6,2.4-0.9,4.7-1,6.7c1.6-0.3,3-0.8,4.4-1.4c1.3-0.7,2.5-1.4,3.5-2.3c1.1,0.3,1.9,0.8,2.5,1.5
		c0.6,0.7,0.9,1.5,0.9,2.4c0,0.5-0.1,1.1-0.4,1.7C16.7,25.2,15.9,25.7,14.8,26.3z"/>
	<path style="fill:#FFFFFF;" d="M35.1,3.6c0.7,0.4,1.3,0.9,1.8,1.5s0.8,1,0.8,1.4c0,0.6-0.4,2.5-1.2,5.7l-0.8,3.2l-0.4,1.8
		c-0.4,2.2-0.8,3.9-1.1,5.1c-0.3,1.2-0.5,2-0.8,2.4c-0.3,0.5-0.8,1-1.6,1.5c-0.8,0.5-1.6,0.9-2.6,1.3s-1.8,0.5-2.7,0.5
		c-0.9,0-1.9-0.4-3-1.1s-2.2-1.7-3-2.8c-0.8-1.2-1.2-2.3-1.2-3.5c0-1.1,0.4-2,1.1-2.7c0.8-0.7,1.6-1,2.6-1c0.9,0,1.6,0.2,2.2,0.7
		c0,0.2,0,0.6,0,1c0,0.9,0.1,1.7,0.3,2.5c0.2,0.8,0.4,1.4,0.7,1.9c0.3,0.5,0.6,0.7,0.9,0.7c0.6,0,1.2-0.8,1.7-2.4
		c0.6-1.6,1.1-3.6,1.5-6c0.2-0.9,0.4-1.9,0.6-3.1c0.4-1.9,0.7-3.3,0.8-4.2c-1.1,0.1-1.9,0.2-2.6,0.3c-0.3,0-0.8,0.1-1.7,0.2
		c-0.8,0.1-1.6,0.2-2.3,0.3c-0.5-0.2-0.9-0.6-1.2-1.1c-0.3-0.5-0.4-1.1-0.4-1.7c0-0.8,0.2-1.5,0.7-2.2c1.4-0.4,3-0.6,4.7-0.8
		C30.6,3,32.1,3,33.5,3C33.9,3,34.4,3.2,35.1,3.6z"/>
	<path style="fill:#FFFFFF;" d="M67,4.1c0.2,0.5,0.3,1,0.3,1.5c0,0.5-0.1,1-0.3,1.4c-0.2,0.5-0.4,0.9-0.8,1.2
		c-2.7,0-5.3,0.2-7.7,0.4c-0.1,0.5-0.4,1.6-0.8,3.3c0,0.2-0.2,1-0.5,2.3c2.6-0.2,4.6-0.5,6.1-0.9c0.5,0.3,0.8,0.7,1.1,1.1
		s0.4,1,0.4,1.5c0,0.5-0.1,1-0.3,1.4c-0.2,0.4-0.5,0.8-0.8,1.1c-0.5,0-0.9,0.1-1.3,0.1c-0.4,0-0.9,0-1.3,0.1L56.6,19
		c-0.2,1.2-0.4,2.7-0.6,4.4c-0.2,1.8-0.4,3.1-0.6,3.8c-0.2,0.7-0.4,1.1-0.8,1.1c-0.6,0-1.3-0.2-2-0.6s-1.4-0.9-1.9-1.5
		c-0.5-0.6-0.8-1-0.8-1.4c0-0.4,0.1-1.2,0.4-2.4c0.3-1.2,0.5-2.5,0.8-4c1.1-4.7,1.7-7.8,1.9-9.6l-1.5,0.1c-0.5-0.2-0.8-0.6-1.1-1.1
		c-0.3-0.5-0.4-1-0.4-1.5c0-1,0.4-1.8,1.1-2.6c3.3,0,6.2-0.1,8.6-0.2c2.4-0.1,4.5-0.3,6.3-0.5C66.4,3.2,66.7,3.6,67,4.1z"/>
	<path style="fill:#FFFFFF;" d="M70.4,27.5c-0.8-0.4-1.4-0.9-2-1.5c-0.6-0.6-0.8-1-0.8-1.4c0-0.5,0.1-1,0.3-1.8
		c0.2-0.7,0.5-1.7,0.9-2.9c0.4-1.2,0.7-2.2,0.9-2.9c0.2-0.7,0.3-1.3,0.3-1.8c0-0.2-0.1-0.4-0.3-0.6s-0.6-0.5-1-0.9
		c-0.5-0.4-0.9-0.8-1.2-1c-0.2-0.2-0.4-0.5-0.4-0.7c0-0.5,0.2-1.1,0.7-1.8c0.5-0.7,1-1.2,1.7-1.7c0.6-0.5,1.2-0.7,1.7-0.7
		c0.5,0,1.1,0.2,1.7,0.7c0.6,0.5,1.2,1,1.7,1.6c0.5,0.6,0.7,1,0.7,1.3c0,0.9-0.2,2.1-0.5,3.6l0.4,0.2c0.6-0.9,1.2-2,1.8-3.2
		c0.7-1.2,1.1-2,1.2-2.3l0.7-1.3c1.7,0,2.9,0.3,3.7,0.9c0.8,0.6,1.2,1.5,1.2,2.6c0,1.1-0.3,2.1-1,3.2c-1.7,0.6-3.2,1.1-4.4,1.7
		c-1.2,0.6-2.4,1.2-3.7,2c-0.1,2.7-0.3,4.9-0.6,6.6c-0.3,1.8-0.9,2.6-1.5,2.6C71.8,28.2,71.1,27.9,70.4,27.5z"/>
	<path style="fill:#FFFFFF;" d="M88.4,27.5c-0.7-0.5-1.3-1-1.9-1.6c-0.5-0.6-0.8-1.1-0.8-1.5c0-0.4,0.1-0.9,0.3-1.7
		c0.2-0.7,0.5-1.4,0.7-2.2s0.4-1.2,0.5-1.4c0.3-0.8,0.6-1.6,0.8-2.4c0.3-0.7,0.4-1.2,0.4-1.5c0-0.2-0.1-0.4-0.3-0.6
		c-0.2-0.2-0.6-0.5-1-0.8c-0.5-0.4-0.9-0.7-1.2-1c-0.3-0.2-0.4-0.5-0.4-0.8c0-0.5,0.2-1.1,0.7-1.8c0.5-0.7,1-1.2,1.7-1.7
		c0.6-0.5,1.2-0.7,1.6-0.7c0.5,0,1.1,0.2,1.7,0.7c0.7,0.5,1.2,1,1.7,1.6s0.7,1,0.7,1.3c0,1.5-0.3,3.3-0.8,5.4S91.9,21,91.1,23
		c1.6-1.3,3-2.8,4.2-4.4c1.2-1.6,2.1-3,2.6-4.3c0-1.6,0.2-2.9,0.6-3.9c0.3-1.1,0.7-1.6,1.1-1.6c0.6,0,1.3,0.2,2.1,0.7
		c0.8,0.4,1.4,1,1.9,1.5c0.5,0.6,0.8,1.1,0.8,1.4c0,0.5-0.3,1.4-0.7,2.8c-0.4,1.4-1,3.2-1.8,5.3c-0.5,1.3-0.7,2.1-0.8,2.3
		c0.7-0.3,1.3-0.6,1.9-1c0.6-0.3,1.2-0.8,1.8-1.3c1.1,0.4,1.8,0.9,2.4,1.5c0.5,0.6,0.8,1.4,0.8,2.2c0,0.6-0.4,1.2-1.2,1.8
		c-0.8,0.6-1.8,1.1-2.9,1.5c-1.1,0.4-2.1,0.6-2.9,0.6c-0.5,0-1.1-0.2-1.8-0.6c-0.7-0.4-1.3-0.9-1.9-1.4s-0.8-0.9-0.8-1.2
		c0-0.3,0.1-0.6,0.3-1c0.2-0.4,0.4-0.8,0.6-1.2c0.2-0.4,0.4-0.8,0.5-1L97,21.2c-1.3,2.4-2.5,4.2-3.4,5.3c-0.9,1.1-2,1.7-3.2,1.7
		C89.8,28.2,89.1,27.9,88.4,27.5z"/>
	<path style="fill:#FFFFFF;" d="M112.6,27.5c-0.8-0.4-1.5-0.9-2-1.5c-0.6-0.6-0.8-1-0.8-1.4c0-0.4,0.2-1.1,0.5-1.9
		c0.3-0.8,0.8-2,1.4-3.5c0.5-1.1,0.8-2,1.1-2.6c0.2-0.6,0.4-1.1,0.4-1.3c0-0.2-0.1-0.4-0.3-0.6c-0.2-0.2-0.6-0.5-1-0.8
		c-0.5-0.4-0.9-0.7-1.2-1c-0.3-0.2-0.4-0.5-0.4-0.8c0-0.5,0.2-1.1,0.7-1.8c0.5-0.7,1-1.2,1.7-1.7c0.6-0.5,1.2-0.7,1.6-0.7
		c0.6,0,1.2,0.2,1.8,0.7c0.7,0.5,1.2,1,1.7,1.7s0.7,1.2,0.7,1.6c0,1.1-0.3,2.6-0.8,4.5s-1.2,4.1-2.1,6.3c0.6-0.3,1.1-0.5,1.5-0.8
		c0.4-0.3,1-0.7,1.8-1.3c1.1,0.4,1.9,0.9,2.4,1.5c0.5,0.7,0.8,1.4,0.8,2.1c0,0.6-0.4,1.2-1.2,1.8s-1.8,1.1-2.9,1.5
		c-1.2,0.4-2.2,0.6-3.1,0.6C114.1,28.2,113.4,27.9,112.6,27.5z M115.5,6.2c-0.6-0.4-1.2-0.8-1.6-1.3c-0.5-0.5-0.7-1-0.7-1.4
		c0-0.6,0.2-1.3,0.5-1.9c0.3-0.6,0.8-1.1,1.3-1.4c0.2-0.1,0.6-0.2,1.2-0.2c0.9,0,1.7,0.2,2.6,0.6c0.9,0.4,1.4,0.9,1.6,1.4
		c0,0.1,0.1,0.3,0.1,0.5c0,0.6-0.2,1.2-0.5,1.8c-0.3,0.7-0.8,1.2-1.3,1.7s-1,0.7-1.5,0.7C116.7,6.8,116.1,6.6,115.5,6.2z"/>
	<path style="fill:#FFFFFF;" d="M131.5,14c-0.8,3.6-1.3,6.6-1.5,8.9c1.5-0.7,2.8-1.5,3.7-2.3c1.1,0.4,1.8,0.9,2.4,1.5
		c0.5,0.6,0.8,1.4,0.8,2.2c0,0.6-0.4,1.2-1.2,1.8c-0.8,0.6-1.8,1.1-2.9,1.5c-1.1,0.4-2.1,0.6-2.9,0.6c-0.7,0-1.5-0.2-2.3-0.6
		c-0.9-0.4-1.6-0.9-2.2-1.5c-0.6-0.6-0.9-1-0.9-1.5c0-0.3,0.1-1.1,0.4-2.2s0.5-2.1,0.7-2.9c0.2-0.8,0.4-1.4,0.5-1.8l0.9-3.5
		l-2.2,0.1c-0.4-0.2-0.7-0.5-0.9-0.9c-0.2-0.4-0.3-0.9-0.3-1.4c0-1,0.3-1.8,1-2.4c0.9,0,1.9,0.1,3.2,0.1c0-1.5,0.2-3.2,0.5-5.1
		c0.3-1.9,0.7-2.8,1.1-2.8c0.5,0,1.1,0.2,1.9,0.6c0.8,0.4,1.4,0.9,2,1.5s0.9,1.1,0.9,1.5c0,0.6-0.1,1.1-0.3,1.7
		c-0.2,0.6-0.5,1.3-1,2.3c0.4,0,1.4-0.2,3.1-0.5l0.8-0.1c0.4,0.2,0.8,0.6,1,1c0.2,0.5,0.3,0.9,0.3,1.5c0,0.4-0.1,0.9-0.3,1.3
		c-0.2,0.4-0.4,0.8-0.8,1L131.5,14z"/>
	<path style="fill:#FFFFFF;" d="M146.6,14.5c-0.7,0.8-1,1.5-1,2c0,0.3,0.2,0.5,0.7,0.8c0.5,0.3,1.2,0.7,2.3,1.1c1.7,0.8,3,1.5,4,2.1
		c1,0.7,1.4,1.4,1.4,2.3c0,0.9-0.5,1.7-1.5,2.5c-1,0.8-2.2,1.5-3.6,2c-1.4,0.5-2.8,0.8-4,0.8c-0.9,0-1.9-0.2-3-0.6
		c-1-0.4-1.9-0.9-2.6-1.5c-0.7-0.6-1-1.2-1-1.7c0-1,0.3-1.8,1-2.4c0.6-0.6,1.5-0.9,2.5-0.9c0.5,0,1,0.1,1.5,0.2
		c0.4,1.3,0.8,2.2,1,2.8c1.5-0.4,2.8-1,3.9-1.9c-2-0.9-3.9-1.8-5.5-2.9c-1.7-1.1-2.5-2.1-2.5-3c0-1,0.4-2.1,1.3-3.4
		c0.9-1.3,2-2.5,3.4-3.5s2.8-1.5,4.2-1.5c1,0,1.9,0.3,2.8,0.9c0.9,0.6,1.6,1.3,2.2,2.2c0.6,0.9,0.8,1.7,0.8,2.5
		c0,0.8-0.3,1.4-0.9,1.9c-0.6,0.5-1.4,0.7-2.3,0.7c-0.6,0-1.2-0.1-1.8-0.4c0-1-0.3-2.1-0.6-3.5C148.2,12.9,147.3,13.8,146.6,14.5z"
		/>
</g>
<g>
	<path style="fill:#FFFFFF;" d="M2.8,44.4c-0.4,0.2-0.7,0.2-0.9,0.2c-0.2,0-0.5-0.1-0.9-0.4c-0.3-0.3-0.6-0.6-0.8-1
		c-0.2-0.4-0.3-0.7-0.3-1c0.1-0.9,0.3-1.8,0.6-2.7C0.9,38.5,1.4,37.7,2,37c0.6-0.6,1.3-1,2-1c0.4,0,0.8,0.1,1.1,0.3
		c0.3,0.2,0.6,0.5,0.8,0.8c0.2,0.3,0.3,0.7,0.3,1.1c0,0.3-0.1,0.5-0.3,0.6c-0.2,0.2-0.4,0.2-0.7,0.2c-0.2,0-0.5-0.1-0.8-0.2
		c0-0.2,0-0.3,0-0.4c0-0.3,0-0.5-0.1-0.7S4,37.7,3.9,37.7c-0.3,0-0.5,0.3-0.9,0.8c-0.3,0.6-0.6,1.2-0.9,2.1s-0.4,1.6-0.4,2.4
		c0.8,0,1.7-0.2,2.7-0.6l0-0.6c-0.2,0-0.3,0-0.4,0c-0.2,0-0.5,0-0.6-0.1c-0.2,0-0.3-0.1-0.3-0.2c0-0.1,0-0.2,0-0.3
		c0-0.2,0-0.4,0.1-0.6c0.1-0.2,0.1-0.3,0.2-0.4c0.1-0.1,0.3-0.2,0.4-0.3s0.4-0.1,0.7-0.1c0.6,0,1,0.1,1.3,0.4C5.9,40.6,6,41,6,41.5
		c0,0.4-0.1,0.9-0.2,1.6c-0.1,0.7-0.3,1.3-0.5,1.8s-0.4,0.8-0.6,0.8c-0.2,0-0.3,0-0.5-0.1c-0.2-0.1-0.4-0.2-0.5-0.3
		c-0.1-0.1-0.2-0.2-0.2-0.3c0-0.1,0.1-0.3,0.1-0.5s0.2-0.3,0.3-0.5l-0.1-0.1C3.5,44,3.2,44.2,2.8,44.4z"/>
	<path style="fill:#FFFFFF;" d="M11.9,42.8c0.1,0.2,0.2,0.4,0.2,0.6c0,0.3-0.1,0.6-0.4,0.9c-0.5,0.1-1,0.2-1.6,0.2
		c-0.6,0.1-1.1,0.1-1.5,0.1c-0.2,0-0.3,0-0.4,0c-0.1,0-0.3-0.1-0.6-0.2C7.4,44.2,7.2,44,7,43.8c-0.2-0.2-0.3-0.4-0.3-0.5
		c0-0.1,0.1-0.6,0.3-1.4c0.2-0.7,0.3-1.5,0.5-2.2l0.1-0.5C7.7,38.3,7.9,37.6,8,37c0.1-0.6,0.3-0.9,0.4-0.9c0.2,0,0.4,0.1,0.6,0.2
		c0.3,0.1,0.5,0.3,0.7,0.5C9.9,37,10,37.2,10,37.3c0,0.1,0,0.3-0.1,0.6c-0.1,0.3-0.1,0.5-0.1,0.6c-0.3,0.9-0.5,1.8-0.6,2.4
		c-0.1,0.5-0.3,1.2-0.5,2c0.9-0.1,1.8-0.3,2.7-0.6C11.6,42.4,11.8,42.6,11.9,42.8z"/>
	<path style="fill:#FFFFFF;" d="M17.4,36.5c0.5,0.3,0.9,0.6,1.3,1.1s0.5,0.9,0.5,1.4c0,0.8-0.2,1.6-0.6,2.5
		c-0.4,0.9-0.9,1.6-1.6,2.2c-0.6,0.6-1.3,0.9-1.9,0.9c-0.3,0-0.7-0.1-1.1-0.4c-0.4-0.3-0.7-0.6-1-1c-0.3-0.4-0.4-0.7-0.4-1
		c0-0.5,0.1-1.2,0.4-2.4c0.3-1.1,0.5-1.9,0.8-2.5c0.3-0.1,0.5-0.1,0.7-0.1c0.2,0,0.3,0,0.4,0c0-0.3,0.1-0.6,0.2-0.8s0.4-0.4,0.7-0.5
		C16.4,36,16.9,36.2,17.4,36.5z M16.5,41.4c0.5-0.8,0.9-1.7,1.1-2.6c-0.2-0.2-0.5-0.3-0.9-0.4c-0.4-0.1-0.7-0.2-1.1-0.2
		c0,0.1,0,0.2,0,0.4c-0.7,1.4-1.1,2.9-1.1,4.4C15.3,42.7,15.9,42.2,16.5,41.4z"/>
	<path style="fill:#FFFFFF;" d="M25.5,41.3c0.3,0.3,0.4,0.6,0.4,0.9c0,0.4-0.2,0.8-0.5,1.2s-0.9,0.7-1.5,0.9
		c-0.6,0.2-1.3,0.4-2.1,0.4c-0.2,0-0.5-0.1-0.8-0.3c-0.3-0.2-0.6-0.4-0.8-0.6c-0.2-0.2-0.3-0.4-0.3-0.6c0-0.2,0.2-1,0.5-2.6
		c0.3-1.2,0.4-2,0.5-2.5L20.5,38c-0.3-0.3-0.4-0.6-0.4-0.9c0-0.3,0.1-0.5,0.2-0.7c0.7-0.2,1.3-0.2,1.8-0.2c0.7,0,1.4,0.1,2,0.3
		c0.6,0.2,1.1,0.5,1.5,0.9c0.4,0.4,0.6,0.8,0.6,1.2c0,0.4-0.2,0.9-0.5,1.2s-0.8,0.7-1.4,0.9C24.8,40.8,25.2,41,25.5,41.3z
		 M23.3,42.8c0.4-0.2,0.5-0.5,0.5-0.8c0-0.2-0.1-0.3-0.2-0.5c-0.1-0.1-0.4-0.2-0.6-0.2c-0.2,0-0.5,0-0.8,0l-0.1,0.3
		c-0.2,0.7-0.4,1.2-0.5,1.6C22.4,43.1,22.9,43,23.3,42.8z M23.9,39.6c0.4-0.3,0.5-0.5,0.5-0.9c0-0.2-0.1-0.4-0.4-0.6
		c-0.3-0.2-0.6-0.2-1-0.2c-0.2,0-0.3,0-0.4,0c-0.1,0.4-0.1,0.6-0.1,0.7c-0.1,0.6-0.2,1.1-0.2,1.5C23,40.1,23.5,39.9,23.9,39.6z"/>
	<path style="fill:#FFFFFF;" d="M32.4,41.6c0,0.1,0,0.5,0.1,1c0.1,0.5,0.1,0.9,0.1,1.3c0,0.4-0.1,0.7-0.2,0.7c0,0-0.1,0-0.2,0
		c-0.2,0-0.4,0-0.7-0.1c-0.3-0.1-0.5-0.2-0.7-0.3s-0.3-0.3-0.4-0.4c0-0.1,0-0.6,0-1.5c-0.9,0.1-1.4,0.2-1.7,0.2
		c-0.2,0.6-0.5,1.3-0.7,2.1c-0.2,0-0.4,0.1-0.6,0.1c-0.3,0-0.6-0.1-0.8-0.2c-0.2-0.2-0.4-0.4-0.4-0.7l0.2-0.5c0.9-2,1.6-3.6,2.3-4.9
		s1.1-2,1.3-2c0.2,0,0.4,0.1,0.7,0.2c0.3,0.1,0.6,0.2,0.8,0.4s0.4,0.3,0.4,0.4c0.1,0.2,0.1,0.7,0.2,1.4c0.1,0.7,0.2,1.4,0.2,2.1
		L32.4,41.6z M29.4,40.7c0.4,0,0.7-0.1,1.1-0.1c0-1.1,0-2,0-2.6C30.1,38.9,29.7,39.8,29.4,40.7z"/>
	<path style="fill:#FFFFFF;" d="M38.6,42.8c0.1,0.2,0.2,0.4,0.2,0.6c0,0.3-0.1,0.6-0.4,0.9c-0.5,0.1-1,0.2-1.6,0.2
		c-0.6,0.1-1.1,0.1-1.5,0.1c-0.2,0-0.3,0-0.4,0c-0.1,0-0.3-0.1-0.6-0.2c-0.2-0.1-0.4-0.3-0.6-0.5c-0.2-0.2-0.3-0.4-0.3-0.5
		c0-0.1,0.1-0.6,0.3-1.4c0.2-0.7,0.3-1.5,0.5-2.2l0.1-0.5c0.2-0.9,0.3-1.6,0.5-2.2s0.3-0.9,0.4-0.9c0.2,0,0.4,0.1,0.6,0.2
		c0.3,0.1,0.5,0.3,0.7,0.5c0.2,0.2,0.3,0.3,0.3,0.5c0,0.1,0,0.3-0.1,0.6c-0.1,0.3-0.1,0.5-0.1,0.6c-0.3,0.9-0.5,1.8-0.6,2.4
		c-0.1,0.5-0.3,1.2-0.5,2c0.9-0.1,1.8-0.3,2.7-0.6C38.3,42.4,38.4,42.6,38.6,42.8z"/>
	<path style="fill:#FFFFFF;" d="M49.6,36.5c0.1,0.2,0.1,0.3,0.1,0.5c0,0.2,0,0.3-0.1,0.5c-0.1,0.2-0.1,0.3-0.3,0.4
		c-0.1,0-0.3,0-0.5,0c-0.2,0-0.4,0-0.8,0l-0.6,0c0-0.2-0.1,0.3-0.3,1.6l-0.2,1.4c-0.1,0.5-0.2,1.1-0.3,1.9c-0.1,0.7-0.2,1.1-0.2,1.4
		c-0.1,0.3-0.2,0.4-0.3,0.4c-0.2,0-0.4-0.1-0.7-0.2s-0.5-0.3-0.7-0.5c-0.2-0.2-0.3-0.3-0.3-0.5c0-0.2,0.1-0.7,0.3-1.6
		c0.2-0.8,0.3-1.3,0.3-1.7c0,0,0.1-0.3,0.2-1c0.1-0.6,0.2-1,0.2-1.1l-1.9,0.2c-0.2-0.1-0.3-0.2-0.4-0.4c-0.1-0.2-0.1-0.3-0.1-0.5
		c0-0.3,0.1-0.6,0.4-0.9c0.5-0.1,1-0.1,1.7-0.1c0.7,0,1.1,0,1.2,0c0.8,0,1.5,0,1.8-0.1c0.4,0,0.7-0.1,1-0.1
		C49.4,36.3,49.6,36.4,49.6,36.5z"/>
	<path style="fill:#FFFFFF;" d="M53.3,43.4c-0.4-0.5-0.8-1-1.1-1.7l0,0.5C52.1,43,52.1,43.6,52,44c-0.1,0.4-0.2,0.6-0.3,0.6
		c-0.2,0-0.4-0.1-0.7-0.2s-0.5-0.3-0.7-0.5c-0.2-0.2-0.3-0.3-0.3-0.5c0-0.2,0.2-1.3,0.6-3.2c0-0.2,0.1-0.6,0.2-1.1
		c0.1-0.5,0.2-0.9,0.2-1.2L50.7,38c-0.2-0.2-0.4-0.5-0.4-0.9c0-0.2,0.1-0.5,0.2-0.8c0.6-0.2,1.3-0.3,2-0.3c0.7,0,1.4,0.1,2,0.3
		c0.6,0.2,1.1,0.5,1.5,0.8s0.6,0.9,0.6,1.4c0,0.7-0.3,1.2-0.8,1.7c-0.5,0.5-1.3,0.8-2.3,1c0.4,0.4,0.8,0.7,1.2,0.9
		c0.4,0.2,0.9,0.4,1.5,0.7c0,0.1,0,0.3,0,0.4c0,0.4-0.1,0.7-0.3,0.9c-0.2,0.2-0.6,0.4-1,0.4C54.3,44.3,53.8,43.9,53.3,43.4z
		 M54.1,39.6c0.4-0.3,0.6-0.6,0.6-1c0-0.2-0.1-0.4-0.4-0.6c-0.2-0.2-0.6-0.2-1-0.2c-0.1,0-0.3,0-0.5,0c-0.1,0.7-0.2,1.1-0.2,1.1
		c-0.1,0.4-0.1,0.8-0.2,1.2C53.1,40.1,53.7,39.9,54.1,39.6z"/>
	<path style="fill:#FFFFFF;" d="M62.8,41.6c0,0.1,0,0.5,0.1,1c0.1,0.5,0.1,0.9,0.1,1.3c0,0.4-0.1,0.7-0.2,0.7c0,0-0.1,0-0.2,0
		c-0.2,0-0.4,0-0.7-0.1s-0.5-0.2-0.7-0.3S61,43.9,61,43.8c0-0.1,0-0.6,0-1.5c-0.9,0.1-1.4,0.2-1.7,0.2c-0.2,0.6-0.5,1.3-0.7,2.1
		c-0.2,0-0.4,0.1-0.6,0.1c-0.3,0-0.6-0.1-0.8-0.2c-0.2-0.2-0.4-0.4-0.4-0.7l0.2-0.5c0.9-2,1.6-3.6,2.3-4.9s1.1-2,1.3-2
		c0.2,0,0.4,0.1,0.7,0.2c0.3,0.1,0.6,0.2,0.8,0.4s0.4,0.3,0.4,0.4c0.1,0.2,0.1,0.7,0.2,1.4c0.1,0.7,0.2,1.4,0.2,2.1L62.8,41.6z
		 M59.8,40.7c0.4,0,0.7-0.1,1.1-0.1c0-1.1,0-2,0-2.6C60.5,38.9,60.2,39.8,59.8,40.7z"/>
	<path style="fill:#FFFFFF;" d="M67.9,36.8c0.8,0.4,1.5,0.9,2,1.5c0.5,0.6,0.7,1.2,0.7,1.9c0,0.6-0.3,1.2-0.8,1.9
		c-0.5,0.7-1.1,1.3-1.9,1.8c-0.7,0.5-1.4,0.7-2,0.7c-0.2,0-0.5-0.1-0.8-0.3c-0.3-0.2-0.6-0.4-0.8-0.7C64.1,43.4,64,43.2,64,43
		c0-0.1,0.1-0.5,0.2-1.1c0.2-0.6,0.3-1.2,0.4-1.8c0-0.2,0.1-0.6,0.3-1.1c0-0.1,0.1-0.2,0.1-0.4c0.1-0.2,0.1-0.4,0.1-0.6l-0.5,0
		c-0.1-0.3-0.2-0.5-0.2-0.8c0-0.2,0.1-0.5,0.2-0.7s0.3-0.4,0.5-0.5C66.1,36.1,67,36.4,67.9,36.8z M67.9,41.5
		c0.5-0.6,0.8-1.2,0.8-1.7c0-0.3-0.2-0.6-0.6-0.9s-0.8-0.5-1.3-0.6c-0.1,0.5-0.2,1.2-0.4,2.1c-0.2,1.1-0.4,2-0.5,2.6
		C66.7,42.6,67.4,42.1,67.9,41.5z"/>
	<path style="fill:#FFFFFF;" d="M71.9,44.4c-0.3-0.1-0.5-0.3-0.7-0.5c-0.2-0.2-0.3-0.3-0.3-0.5c0-0.1,0-0.4,0.1-0.8
		c0.1-0.4,0.1-0.7,0.2-0.8c0-0.2,0.1-0.5,0.2-0.9c0.1-0.4,0.2-0.8,0.2-1.2l0.1-0.6c0.2-0.9,0.3-1.6,0.4-2.2c0.1-0.6,0.3-0.8,0.4-0.8
		c0.2,0,0.4,0.1,0.6,0.2c0.3,0.1,0.5,0.3,0.7,0.5c0.2,0.2,0.3,0.3,0.3,0.5c0,0.1-0.1,0.4-0.2,1c-0.3,1-0.5,1.9-0.6,2.6
		c-0.1,0.5-0.2,1.1-0.3,1.9c-0.1,0.7-0.2,1.1-0.2,1.4c-0.1,0.3-0.2,0.4-0.3,0.4C72.4,44.6,72.2,44.5,71.9,44.4z"/>
	<path style="fill:#FFFFFF;" d="M80.6,36.4c0.3,0.1,0.5,0.3,0.7,0.5c0.2,0.2,0.3,0.3,0.3,0.5c0,0.1-0.1,0.4-0.2,1
		c-0.3,1-0.5,1.9-0.6,2.6c-0.1,0.5-0.2,1.1-0.3,1.9c-0.1,0.7-0.2,1.1-0.2,1.4c-0.1,0.3-0.2,0.4-0.3,0.4c-0.2,0-0.5-0.1-0.8-0.3
		c-0.3-0.2-0.6-0.4-0.8-0.7c-0.1-0.2-0.3-0.5-0.5-0.9c-0.2-0.5-0.4-1-0.6-1.6c-0.2-0.6-0.4-1.1-0.5-1.6l-0.1,1.5
		c-0.1,0.5-0.2,1.1-0.3,1.9c-0.1,0.7-0.2,1.1-0.2,1.4c-0.1,0.3-0.2,0.4-0.3,0.4c-0.2,0-0.4-0.1-0.7-0.2c-0.3-0.1-0.5-0.3-0.7-0.5
		c-0.2-0.2-0.3-0.3-0.3-0.5c0-0.1,0-0.4,0.1-0.8c0.1-0.4,0.1-0.7,0.2-0.8c0-0.2,0.1-0.5,0.2-0.9c0.1-0.4,0.2-0.8,0.2-1.2l0.1-0.6
		c0.2-0.9,0.3-1.6,0.4-2.2c0.1-0.6,0.3-0.8,0.4-0.8s0.3,0.1,0.6,0.2c0.2,0.1,0.5,0.3,0.6,0.4c0.2,0.2,0.3,0.3,0.4,0.5
		c0.4,1,0.8,2.4,1.4,4.1l0.1-1.6l0.1-0.6c0.2-0.9,0.3-1.6,0.4-2.2c0.1-0.6,0.3-0.8,0.4-0.8C80.2,36.2,80.4,36.2,80.6,36.4z"/>
	<path style="fill:#FFFFFF;" d="M84.6,44.4c-0.4,0.2-0.7,0.2-0.9,0.2c-0.2,0-0.5-0.1-0.9-0.4c-0.3-0.3-0.6-0.6-0.8-1
		c-0.2-0.4-0.3-0.7-0.3-1c0.1-0.9,0.3-1.8,0.6-2.7c0.3-0.9,0.8-1.7,1.4-2.4c0.6-0.6,1.3-1,2-1c0.4,0,0.8,0.1,1.1,0.3
		s0.6,0.5,0.8,0.8c0.2,0.3,0.3,0.7,0.3,1.1c0,0.3-0.1,0.5-0.3,0.6c-0.2,0.2-0.4,0.2-0.7,0.2c-0.2,0-0.5-0.1-0.8-0.2
		c0-0.2,0-0.3,0-0.4c0-0.3,0-0.5-0.1-0.7s-0.2-0.2-0.4-0.2c-0.3,0-0.5,0.3-0.9,0.8c-0.3,0.6-0.6,1.2-0.9,2.1s-0.4,1.6-0.4,2.4
		c0.8,0,1.7-0.2,2.7-0.6l0-0.6c-0.2,0-0.3,0-0.4,0c-0.2,0-0.5,0-0.6-0.1c-0.2,0-0.3-0.1-0.3-0.2c0-0.1,0-0.2,0-0.3
		c0-0.2,0-0.4,0.1-0.6s0.1-0.3,0.2-0.4c0.1-0.1,0.3-0.2,0.4-0.3s0.4-0.1,0.7-0.1c0.6,0,1,0.1,1.3,0.4c0.2,0.3,0.4,0.7,0.4,1.2
		c0,0.4-0.1,0.9-0.2,1.6c-0.1,0.7-0.3,1.3-0.5,1.8s-0.4,0.8-0.6,0.8c-0.2,0-0.3,0-0.5-0.1c-0.2-0.1-0.4-0.2-0.5-0.3
		c-0.1-0.1-0.2-0.2-0.2-0.3c0-0.1,0.1-0.3,0.1-0.5s0.2-0.3,0.3-0.5l-0.1-0.1C85.3,44,85,44.2,84.6,44.4z"/>
	<path style="fill:#FFFFFF;" d="M98.1,36.5c0.1,0.2,0.1,0.3,0.1,0.5c0,0.2,0,0.3-0.1,0.5c-0.1,0.2-0.1,0.3-0.3,0.4
		c-0.9,0-1.8,0.1-2.6,0.1c0,0.2-0.1,0.5-0.3,1.1c0,0.1-0.1,0.3-0.2,0.8c0.9-0.1,1.5-0.2,2-0.3c0.2,0.1,0.3,0.2,0.4,0.4
		c0.1,0.2,0.1,0.3,0.1,0.5c0,0.2,0,0.3-0.1,0.5c-0.1,0.1-0.2,0.3-0.3,0.4c-0.2,0-0.3,0-0.5,0c-0.1,0-0.3,0-0.4,0l-1.5,0.1
		c-0.1,0.4-0.1,0.9-0.2,1.5c-0.1,0.6-0.1,1-0.2,1.3c-0.1,0.2-0.1,0.4-0.3,0.4c-0.2,0-0.4-0.1-0.7-0.2s-0.5-0.3-0.6-0.5
		c-0.2-0.2-0.3-0.3-0.3-0.5s0-0.4,0.1-0.8s0.2-0.8,0.3-1.3c0.4-1.6,0.6-2.6,0.6-3.2l-0.5,0c-0.2-0.1-0.3-0.2-0.4-0.4
		s-0.1-0.3-0.1-0.5c0-0.3,0.1-0.6,0.4-0.9c1.1,0,2,0,2.9-0.1c0.8,0,1.5-0.1,2.1-0.2C97.9,36.3,98,36.4,98.1,36.5z"/>
	<path style="fill:#FFFFFF;" d="M102.8,36.5c0.5,0.3,0.9,0.6,1.3,1.1s0.5,0.9,0.5,1.4c0,0.8-0.2,1.6-0.6,2.5
		c-0.4,0.9-0.9,1.6-1.6,2.2c-0.6,0.6-1.3,0.9-1.9,0.9c-0.3,0-0.7-0.1-1.1-0.4c-0.4-0.3-0.7-0.6-1-1c-0.3-0.4-0.4-0.7-0.4-1
		c0-0.5,0.1-1.2,0.4-2.4c0.3-1.1,0.5-1.9,0.8-2.5c0.3-0.1,0.5-0.1,0.7-0.1c0.2,0,0.3,0,0.4,0c0-0.3,0.1-0.6,0.2-0.8
		c0.2-0.2,0.4-0.4,0.7-0.5C101.8,36,102.3,36.2,102.8,36.5z M101.9,41.4c0.5-0.8,0.9-1.7,1.1-2.6c-0.2-0.2-0.5-0.3-0.9-0.4
		c-0.4-0.1-0.7-0.2-1.1-0.2c0,0.1,0,0.2,0,0.4c-0.7,1.4-1.1,2.9-1.1,4.4C100.7,42.7,101.4,42.2,101.9,41.4z"/>
	<path style="fill:#FFFFFF;" d="M109.8,36.5c0.5,0.3,0.9,0.6,1.3,1.1c0.3,0.5,0.5,0.9,0.5,1.4c0,0.8-0.2,1.6-0.6,2.5
		c-0.4,0.9-0.9,1.6-1.6,2.2c-0.6,0.6-1.3,0.9-1.9,0.9c-0.3,0-0.7-0.1-1.1-0.4c-0.4-0.3-0.7-0.6-1-1c-0.3-0.4-0.4-0.7-0.4-1
		c0-0.5,0.1-1.2,0.4-2.4c0.3-1.1,0.5-1.9,0.8-2.5c0.3-0.1,0.5-0.1,0.7-0.1c0.2,0,0.3,0,0.4,0c0-0.3,0.1-0.6,0.2-0.8
		c0.2-0.2,0.4-0.4,0.7-0.5C108.7,36,109.3,36.2,109.8,36.5z M108.9,41.4c0.5-0.8,0.9-1.7,1.1-2.6c-0.2-0.2-0.5-0.3-0.9-0.4
		c-0.4-0.1-0.7-0.2-1.1-0.2c0,0.1,0,0.2,0,0.4c-0.7,1.4-1.1,2.9-1.1,4.4C107.7,42.7,108.3,42.2,108.9,41.4z"/>
	<path style="fill:#FFFFFF;" d="M115.9,36.8c0.8,0.4,1.5,0.9,2,1.5c0.5,0.6,0.7,1.2,0.7,1.9c0,0.6-0.3,1.2-0.8,1.9
		c-0.5,0.7-1.1,1.3-1.9,1.8c-0.7,0.5-1.4,0.7-2,0.7c-0.2,0-0.5-0.1-0.8-0.3c-0.3-0.2-0.6-0.4-0.8-0.7c-0.2-0.3-0.3-0.5-0.3-0.6
		c0-0.1,0.1-0.5,0.2-1.1c0.2-0.6,0.3-1.2,0.4-1.8c0-0.2,0.1-0.6,0.3-1.1c0-0.1,0.1-0.2,0.1-0.4c0.1-0.2,0.1-0.4,0.1-0.6l-0.5,0
		c-0.1-0.3-0.2-0.5-0.2-0.8c0-0.2,0.1-0.5,0.2-0.7c0.1-0.2,0.3-0.4,0.5-0.5C114.2,36.1,115,36.4,115.9,36.8z M115.9,41.5
		c0.5-0.6,0.8-1.2,0.8-1.7c0-0.3-0.2-0.6-0.6-0.9c-0.4-0.3-0.8-0.5-1.3-0.6c-0.1,0.5-0.2,1.2-0.4,2.1c-0.2,1.1-0.4,2-0.5,2.6
		C114.7,42.6,115.4,42.1,115.9,41.5z"/>
</g>
</svg>
