<?xml version="1.0" encoding="utf-8"?>
<!-- Generator: Adobe Illustrator 23.0.1, SVG Export Plug-In . SVG Version: 6.00 Build 0)  -->
<svg version="1.1" id="Logo" xmlns="http://www.w3.org/2000/svg" xmlns:xlink="http://www.w3.org/1999/xlink" x="0px" y="0px"
	 viewBox="0 0 148.3 144.8" style="enable-background:new 0 0 148.3 144.8;" xml:space="preserve">
<g id="Picture">
	<g id="XMLID_1_">
		<g>
			<path style="fill:#F1605B;" d="M146.4,57.5c1.7,0.5,2.1,2.5,1.3,4.6c0,0-0.5,1.9-2.4,4.5c-1.8,2.6-5,5.8-10.1,8.5
				c5.7-4.2,2.9-9.9,6.3-15.3c1-1.7,2.9-2.8,4.5-2.3L146.4,57.5z"/>
			<path style="fill:#FEC713;" d="M134.1,37.9C134.1,37.9,134.1,37.9,134.1,37.9c0,0.5-0.4,5.1-14.3,5.9
				C127.7,34.7,133.9,35.3,134.1,37.9z"/>
			<path style="fill:#F1605B;" d="M129.6,81.7c0,0,4.3,10.3,2.3,23.7c0,0-0.9,0.7-2.7,1.9c-7,4.7-26.9,16.5-53.9,18.1
				c-8.7,0.5-18.1,0-28-2.2c0,0-2.6-3.6-4.6-10.3c0,0,7.9,2.3,19.9,2.1C80.3,114.7,106.8,108.8,129.6,81.7z"/>
			<path style="fill:#F6A81C;" d="M122,68.7c0,0-0.5,0.6-1.6,1.5c0,0,0,0,0,0c-5.7,5.4-26.7,23.4-58.6,30.8
				c-6.6,1.5-13.7,2.6-21.2,3c0,0-1.2-7.2,0.6-14.9c0,0,11.8-1.2,26.5-6.4c13.1-4.6,28.5-12.5,39.8-25.5
				C107.6,57.3,116.1,59.7,122,68.7z"/>
			<path style="fill:#F6A81C;" d="M115.6,25.8c0,0,0,0.4,0,1c0,3-1,12.1-11.9,20.7c6.5-7.6-1.9-14.5,0.1-23.2c0.5-2.7,3-4.7,5.8-4.5
				l0.7,0C113.5,20.1,115.5,22.7,115.6,25.8z"/>
			<path style="fill:#4D2F49;" d="M129.2,107.4c0,0-26.1,25.5-44.7,29.5v0c-13.4,0-24.2-2.8-27.3-3.7v0c5.9,1.1,18.2-7.6,18.2-7.6
				C102.3,123.9,122.2,112.1,129.2,107.4z"/>
			<path style="fill:#F1605B;" d="M106.3,0.5c1,0.4,1.2,1.7,0.6,3c0,0-0.5,1.2-1.8,2.7c-1.3,1.5-3.4,3.4-6.9,4.8
				c3.8-2.4,2.3-6.1,4.8-9.4c0.7-1.1,2-1.6,3-1.2L106.3,0.5z"/>
			<path style="fill:#7A254B;" d="M120.5,70.2c-0.4,0.5-25.6,34.2-57.8,44.8c-12,0.2-19.9-2.1-19.9-2.1c8.8-2.4,19.1-11.9,19.1-11.9
				v0C93.7,93.6,114.8,75.6,120.5,70.2z"/>
			<path style="fill:#FEC713;" d="M88.3,51.7C88.3,51.7,88.3,51.7,88.3,51.7c-0.2,0.5-6.9,13-29.4,19.2c-3.5,1-7.3,1.8-11.6,2.4
				C47.3,73.3,59.5,51.3,88.3,51.7z"/>
			<path style="fill:#78BE43;" d="M74.6,33.9c-0.2,0.4-3.5,7.1-2.4,13.1c-14.5-6.9-7.1-22.2,18.2-46.1
				c-10.7,14.6,12.4,43.4-15.3,45.9C75.2,46.8,73,40.1,74.6,33.9z"/>
			<path style="fill:#C71D5E;" d="M120.5,128.6c0,0-27.9,32.9-64.2,4.3c0.1,0,0.4,0.1,0.9,0.3c3.1,0.9,13.9,3.7,27.3,3.7
				C95.7,136.9,108.6,135,120.5,128.6z"/>
			<path style="fill:#E37A3F;" d="M88.3,51.8c-0.2,0.6-6.2,18.4-20.5,31c-14.7,5.2-26.5,6.4-26.5,6.4C57.1,77.6,58.9,71,58.9,71
				C81.5,64.8,88.1,52.2,88.3,51.8z"/>
			<path style="fill:#684323;" d="M64.3,52.2c0,0-4.4-13.2-14.1-16.7c0,0-0.6-5.9,3.8-6.6C54,28.9,62.7,32.6,64.3,52.2z"/>
			<path style="fill:#FEC713;" d="M51.2,3.3c6.6,3.3-2.8,7.8,1.3,13.1C43.6,10.5,48.2,1.9,51.2,3.3z"/>
			<path style="fill:#F6A81C;" d="M38.9,81.9C38.9,81.9,38.9,81.9,38.9,81.9c-16.2,0-21.2-11.2-21.2-11.2c-1.3-2.9-0.6-6.1,2.1-7.6
				l0.6-0.4c2.5-1.4,5.6-0.7,7.2,1.5C33.2,71.2,29.8,77.9,38.9,81.9z"/>
			<path style="fill:#F6A81C;" d="M35.4,109.5c-12.1,3.6-16.9-2-15.5-5.1c0,0,0.7-1.6,3.3-1.6C25.4,102.8,29.2,104.1,35.4,109.5z"/>
			<path style="fill:#F1605B;" d="M26.5,28.9c0.7,0,5.1,0.5,6.4,14.1C23.5,35.4,23.8,29.2,26.5,28.9C26.4,28.9,26.4,28.9,26.5,28.9z
				"/>
			<path style="fill:#FEC713;" d="M2,80.1c7.3-0.7,1.7,8.1,8,10.5C-0.7,90.1-1.3,80.5,2,80.1z"/>
		</g>
		<g>
		</g>
	</g>
	<circle style="fill:#181818;" cx="73.9" cy="58.9" r="1.4"/>
	<circle style="fill:#181818;" cx="107.3" cy="64.9" r="1.4"/>
	<circle style="fill:#181818;" cx="109.7" cy="72.6" r="1.4"/>
	<circle style="fill:#181818;" cx="94.4" cy="75.3" r="1.4"/>
	<circle style="fill:#181818;" cx="124.8" cy="105.6" r="1.4"/>
	<circle style="fill:#181818;" cx="126" cy="93.6" r="1.4"/>
	<circle style="fill:#181818;" cx="118.7" cy="98.4" r="1.4"/>
	<circle style="fill:#181818;" cx="114.5" cy="109.9" r="1.4"/>
</g>
<g id="Text">
</g>
</svg>
