<?xml version="1.0" encoding="utf-8"?>
<!-- Generator: Adobe Illustrator 23.0.4, SVG Export Plug-In . SVG Version: 6.00 Build 0)  -->
<svg version="1.1" id="Calque_1" xmlns="http://www.w3.org/2000/svg" xmlns:xlink="http://www.w3.org/1999/xlink" x="0px" y="0px"
	 viewBox="0 0 324.2 144.8" style="enable-background:new 0 0 324.2 144.8;" xml:space="preserve">
<style type="text/css">
	.st0{fill:#EA5753;}
	.st1{fill:#FDC700;}
	.st2{fill:#F4A800;}
	.st3{fill:#802547;}
	.st4{fill:#7DB828;}
	.st5{fill:#E27635;}
	.st6{fill:#714521;}
	.st7{fill:#533048;}
	.st8{fill:#C71255;}
	.st9{fill:#221F1C;}
</style>
<g>
	<g id="XMLID_1_">
		<g>
			<path class="st0" d="M146.4,57.8c1.7,0.5,2.1,2.5,1.3,4.6c0,0-0.5,1.9-2.4,4.5c-1.8,2.6-5,5.8-10.1,8.5c5.7-4.2,2.9-9.9,6.3-15.3
				c1-1.7,2.9-2.8,4.5-2.3L146.4,57.8z"/>
			<path class="st1" d="M134.1,38.1C134.1,38.1,134.1,38.1,134.1,38.1c0,0.5-0.4,5.1-14.3,5.9C127.7,35,133.9,35.5,134.1,38.1z"/>
			<path class="st0" d="M129.6,82c0,0,4.3,10.3,2.3,23.7c0,0-0.9,0.7-2.7,1.9c-7,4.7-26.9,16.5-53.9,18.1c-8.7,0.5-18.1,0-28-2.2
				c0,0-2.6-3.6-4.6-10.3c0,0,7.9,2.3,19.9,2.1C80.3,114.9,106.8,109.1,129.6,82z"/>
			<path class="st2" d="M122,68.9c0,0-0.5,0.6-1.6,1.5c0,0,0,0,0,0c-5.7,5.4-26.7,23.4-58.6,30.7c-6.6,1.5-13.7,2.6-21.2,3
				c0,0-1.2-7.2,0.6-14.9c0,0,11.8-1.2,26.5-6.4c13.1-4.6,28.5-12.5,39.8-25.5C107.6,57.5,116.1,59.9,122,68.9z"/>
			<path class="st2" d="M115.6,26.1c0,0,0,0.4,0,1c0,3-1,12.1-11.9,20.7c6.5-7.6-1.9-14.5,0.1-23.2c0.5-2.7,3-4.7,5.8-4.5l0.7,0
				C113.5,20.4,115.5,23,115.6,26.1z"/>
			<path class="st0" d="M106.3,0.7c1,0.4,1.2,1.7,0.6,3c0,0-0.5,1.2-1.8,2.7s-3.4,3.4-6.9,4.8c3.8-2.4,2.3-6.1,4.8-9.4
				c0.7-1.1,2-1.6,3-1.2L106.3,0.7z"/>
			<path class="st3" d="M120.5,70.5c-0.8,1-25.9,34.2-57.8,44.8c-12,0.2-19.9-2.1-19.9-2.1c8.8-2.4,19.1-11.9,19.1-11.9v0
				C93.7,93.9,114.7,75.9,120.5,70.5z"/>
			<path class="st1" d="M88.3,52C88.3,52,88.3,52,88.3,52c-0.2,0.5-6.9,13-29.4,19.2c-3.5,1-7.3,1.8-11.6,2.4
				C47.3,73.6,59.5,51.5,88.3,52z"/>
			<path class="st4" d="M74.6,34.1c-0.2,0.4-3.5,7.1-2.4,13.1c-14.5-6.9-7.1-22.2,18.2-46.1c-10.7,14.6,12.4,43.4-15.3,45.9
				C75.2,47.1,73,40.4,74.6,34.1z"/>
			<path class="st5" d="M88.3,52c-0.2,0.6-6.2,18.4-20.5,31c-14.7,5.2-26.5,6.4-26.5,6.4c15.8-11.5,17.6-18.1,17.6-18.1
				C81.5,65,88.1,52.5,88.3,52z"/>
			<path class="st6" d="M64.3,52.4c0,0-4.4-13.2-14.1-16.7c0,0-0.6-5.9,3.8-6.6C54,29.2,62.7,32.8,64.3,52.4z"/>
			<path class="st7" d="M84.5,137.1c-13.4,0-24.2-2.8-27.3-3.7v0c5.9,1.1,18.2-7.6,18.2-7.6c26.9-1.6,46.9-13.4,53.9-18.1
				C129.2,107.6,103.2,133.1,84.5,137.1L84.5,137.1z"/>
			<path class="st8" d="M57.2,133.4c3.1,0.9,13.9,3.7,27.3,3.7c11.1,0,24.1-1.8,36-8.3c0,0-27.9,32.9-64.2,4.3
				C56.3,133.1,56.7,133.2,57.2,133.4z"/>
			<path class="st1" d="M51.2,3.6c6.6,3.3-2.8,7.8,1.3,13.1C43.6,10.7,48.2,2.2,51.2,3.6z"/>
			<path class="st2" d="M38.9,82.1C38.9,82.1,38.9,82.1,38.9,82.1c-16.2,0-21.2-11.2-21.2-11.2c-1.3-2.9-0.6-6.1,2.1-7.6l0.6-0.4
				c2.5-1.4,5.6-0.7,7.2,1.5C33.2,71.4,29.8,78.1,38.9,82.1z"/>
			<path class="st2" d="M35.4,109.7c-12.1,3.6-16.9-2-15.5-5.1c0,0,0.7-1.6,3.3-1.6C25.4,103,29.2,104.4,35.4,109.7z"/>
			<path class="st0" d="M26.5,29.2c0.7,0,5.1,0.5,6.4,14.1C23.5,35.6,23.8,29.5,26.5,29.2C26.4,29.2,26.4,29.2,26.5,29.2z"/>
			<path class="st1" d="M2,80.3c7.3-0.7,1.7,8.1,8,10.5C-0.7,90.4-1.3,80.7,2,80.3z"/>
		</g>
		<g>
		</g>
	</g>
	<circle class="st9" cx="76.9" cy="59.1" r="1.4"/>
	<circle class="st9" cx="107.3" cy="65.2" r="1.4"/>
	<circle class="st9" cx="109.7" cy="72.9" r="1.4"/>
	<circle class="st9" cx="97.4" cy="75.5" r="1.4"/>
	<circle class="st9" cx="126" cy="93.9" r="1.4"/>
	<circle class="st9" cx="124.8" cy="105.9" r="1.4"/>
	<circle class="st9" cx="118.7" cy="98.7" r="1.4"/>
	<circle class="st9" cx="114.5" cy="110.1" r="1.4"/>
</g>
<g>
	<g>
		<path class="st3" d="M184,110.5c-1.1,0.6-2.3,1.1-3.6,1.5c-1.3,0.4-2.5,0.6-3.6,0.6c-0.8,0-1.8-0.4-3-1.2c-1.2-0.8-2.1-1.7-3-2.8
			c-0.8-1.1-1.2-2-1.2-2.9c0-2.6,0.5-5.3,1.3-8.3c0.9-3,2.1-5.5,3.9-7.5c1.7-2.1,3.8-3.1,6.2-3.1c1.3,0,2.5,0.4,3.5,1.1
			c1.1,0.7,1.9,1.6,2.6,2.7c0.6,1.1,0.9,2.1,0.9,3c0,1-0.3,1.7-1,2.2c-0.7,0.5-1.6,0.8-2.6,0.8c-0.8,0-1.5-0.1-2.3-0.4
			c0-0.4,0-1,0-1.8c0-0.9-0.1-1.5-0.2-2c-0.1-0.4-0.4-0.6-0.8-0.6c-0.8,0-1.7,0.8-2.5,2.5c-0.9,1.7-1.6,3.7-2.2,6.2
			c-0.6,2.4-0.9,4.7-1,6.7c1.6-0.3,3-0.8,4.4-1.4c1.3-0.7,2.5-1.4,3.5-2.3c1.1,0.3,1.9,0.8,2.5,1.5c0.6,0.7,0.9,1.5,0.9,2.4
			c0,0.5-0.1,1.1-0.4,1.7C185.9,109.4,185.1,109.9,184,110.5z"/>
		<path class="st3" d="M204.3,87.8c0.7,0.4,1.3,0.9,1.8,1.5s0.8,1,0.8,1.4c0,0.6-0.4,2.5-1.2,5.7l-0.8,3.2l-0.4,1.8
			c-0.4,2.2-0.8,3.9-1.1,5.1c-0.3,1.2-0.5,2-0.8,2.4c-0.3,0.5-0.8,1-1.6,1.5c-0.8,0.5-1.6,0.9-2.6,1.3s-1.8,0.5-2.7,0.5
			c-0.9,0-1.9-0.4-3-1.1s-2.2-1.7-3-2.8c-0.8-1.2-1.2-2.3-1.2-3.5c0-1.1,0.4-2,1.1-2.7c0.8-0.7,1.6-1,2.6-1c0.9,0,1.6,0.2,2.2,0.7
			c0,0.2,0,0.6,0,1c0,0.9,0.1,1.7,0.3,2.5c0.2,0.8,0.4,1.4,0.7,1.9c0.3,0.5,0.6,0.7,0.9,0.7c0.6,0,1.2-0.8,1.7-2.4
			c0.6-1.6,1.1-3.6,1.5-6c0.2-0.9,0.4-1.9,0.6-3.1c0.4-1.9,0.7-3.3,0.8-4.2c-1.1,0.1-1.9,0.2-2.6,0.3c-0.3,0-0.8,0.1-1.7,0.2
			c-0.8,0.1-1.6,0.2-2.3,0.3c-0.5-0.2-0.9-0.6-1.2-1.1c-0.3-0.5-0.4-1.1-0.4-1.7c0-0.8,0.2-1.5,0.7-2.2c1.4-0.4,3-0.6,4.7-0.8
			c1.7-0.2,3.2-0.2,4.6-0.2C203.1,87.2,203.6,87.4,204.3,87.8z"/>
		<path class="st3" d="M236.2,88.3c0.2,0.5,0.3,1,0.3,1.5c0,0.5-0.1,1-0.3,1.4c-0.2,0.5-0.4,0.9-0.8,1.2c-2.7,0-5.3,0.2-7.7,0.4
			c-0.1,0.5-0.4,1.6-0.8,3.3c0,0.2-0.2,1-0.5,2.3c2.6-0.2,4.6-0.5,6.1-0.9c0.5,0.3,0.8,0.7,1.1,1.1s0.4,1,0.4,1.5
			c0,0.5-0.1,1-0.3,1.4c-0.2,0.4-0.5,0.8-0.8,1.1c-0.5,0-0.9,0.1-1.3,0.1c-0.4,0-0.9,0-1.3,0.1l-4.5,0.3c-0.2,1.2-0.4,2.7-0.6,4.4
			c-0.2,1.8-0.4,3.1-0.6,3.8c-0.2,0.7-0.4,1.1-0.8,1.1c-0.6,0-1.3-0.2-2-0.6s-1.4-0.9-1.9-1.5c-0.5-0.6-0.8-1-0.8-1.4
			c0-0.4,0.1-1.2,0.4-2.4c0.3-1.2,0.5-2.5,0.8-4c1.1-4.7,1.7-7.8,1.9-9.6l-1.5,0.1c-0.5-0.2-0.8-0.6-1.1-1.1c-0.3-0.5-0.4-1-0.4-1.5
			c0-1,0.4-1.8,1.1-2.6c3.3,0,6.2-0.1,8.6-0.2c2.4-0.1,4.5-0.3,6.3-0.5C235.6,87.4,235.9,87.8,236.2,88.3z"/>
		<path class="st3" d="M239.6,111.7c-0.8-0.4-1.4-0.9-2-1.5c-0.6-0.6-0.8-1-0.8-1.4c0-0.5,0.1-1,0.3-1.8c0.2-0.7,0.5-1.7,0.9-2.9
			c0.4-1.2,0.7-2.2,0.9-2.9c0.2-0.7,0.3-1.3,0.3-1.8c0-0.2-0.1-0.4-0.3-0.6s-0.6-0.5-1-0.9c-0.5-0.4-0.9-0.8-1.2-1
			c-0.2-0.2-0.4-0.5-0.4-0.7c0-0.5,0.2-1.1,0.7-1.8c0.5-0.7,1-1.2,1.7-1.7c0.6-0.5,1.2-0.7,1.7-0.7c0.5,0,1.1,0.2,1.7,0.7
			c0.6,0.5,1.2,1,1.7,1.6c0.5,0.6,0.7,1,0.7,1.3c0,0.9-0.2,2.1-0.5,3.6l0.4,0.2c0.6-0.9,1.2-2,1.8-3.2c0.7-1.2,1.1-2,1.2-2.3
			l0.7-1.3c1.7,0,2.9,0.3,3.7,0.9c0.8,0.6,1.2,1.5,1.2,2.6c0,1.1-0.3,2.1-1,3.2c-1.7,0.6-3.2,1.1-4.4,1.7c-1.2,0.6-2.4,1.2-3.7,2
			c-0.1,2.7-0.3,4.9-0.6,6.6c-0.3,1.8-0.9,2.6-1.5,2.6C241,112.4,240.3,112.2,239.6,111.7z"/>
		<path class="st3" d="M257.6,111.7c-0.7-0.5-1.3-1-1.9-1.6c-0.5-0.6-0.8-1.1-0.8-1.5c0-0.4,0.1-0.9,0.3-1.7
			c0.2-0.7,0.5-1.4,0.7-2.2s0.4-1.2,0.5-1.4c0.3-0.8,0.6-1.6,0.8-2.4c0.3-0.7,0.4-1.2,0.4-1.5c0-0.2-0.1-0.4-0.3-0.6
			c-0.2-0.2-0.6-0.5-1-0.8c-0.5-0.4-0.9-0.7-1.2-1c-0.3-0.2-0.4-0.5-0.4-0.8c0-0.5,0.2-1.1,0.7-1.8c0.5-0.7,1-1.2,1.7-1.7
			c0.6-0.5,1.2-0.7,1.6-0.7c0.5,0,1.1,0.2,1.7,0.7c0.7,0.5,1.2,1,1.7,1.6s0.7,1,0.7,1.3c0,1.5-0.3,3.3-0.8,5.4s-1.2,4.2-1.9,6.2
			c1.6-1.3,3-2.8,4.2-4.4c1.2-1.6,2.1-3,2.6-4.3c0-1.6,0.2-2.9,0.6-3.9c0.3-1.1,0.7-1.6,1.1-1.6c0.6,0,1.3,0.2,2.1,0.7
			c0.8,0.4,1.4,1,1.9,1.5c0.5,0.6,0.8,1.1,0.8,1.4c0,0.5-0.3,1.4-0.7,2.8c-0.4,1.4-1,3.2-1.8,5.3c-0.5,1.3-0.7,2.1-0.8,2.3
			c0.7-0.3,1.3-0.6,1.9-1c0.6-0.3,1.2-0.8,1.8-1.3c1.1,0.4,1.8,0.9,2.4,1.5c0.5,0.6,0.8,1.4,0.8,2.2c0,0.6-0.4,1.2-1.2,1.8
			c-0.8,0.6-1.8,1.1-2.9,1.5c-1.1,0.4-2.1,0.6-2.9,0.6c-0.5,0-1.1-0.2-1.8-0.6c-0.7-0.4-1.3-0.9-1.9-1.4s-0.8-0.9-0.8-1.2
			c0-0.3,0.1-0.6,0.3-1c0.2-0.4,0.4-0.8,0.6-1.2c0.2-0.4,0.4-0.8,0.5-1l-0.9-0.5c-1.3,2.4-2.5,4.2-3.4,5.3c-0.9,1.1-2,1.7-3.2,1.7
			C259,112.4,258.3,112.1,257.6,111.7z"/>
		<path class="st3" d="M281.8,111.7c-0.8-0.4-1.5-0.9-2-1.5c-0.6-0.6-0.8-1-0.8-1.4c0-0.4,0.2-1.1,0.5-1.9c0.3-0.8,0.8-2,1.4-3.5
			c0.5-1.1,0.8-2,1.1-2.6c0.2-0.6,0.4-1.1,0.4-1.3c0-0.2-0.1-0.4-0.3-0.6c-0.2-0.2-0.6-0.5-1-0.8c-0.5-0.4-0.9-0.7-1.2-1
			c-0.3-0.2-0.4-0.5-0.4-0.8c0-0.5,0.2-1.1,0.7-1.8c0.5-0.7,1-1.2,1.7-1.7c0.6-0.5,1.2-0.7,1.6-0.7c0.6,0,1.2,0.2,1.8,0.7
			c0.7,0.5,1.2,1,1.7,1.7s0.7,1.2,0.7,1.6c0,1.1-0.3,2.6-0.8,4.5s-1.2,4.1-2.1,6.3c0.6-0.3,1.1-0.5,1.5-0.8s1-0.7,1.8-1.3
			c1.1,0.4,1.9,0.9,2.4,1.5c0.5,0.7,0.8,1.4,0.8,2.1c0,0.6-0.4,1.2-1.2,1.8s-1.8,1.1-2.9,1.5c-1.2,0.4-2.2,0.6-3.1,0.6
			C283.3,112.4,282.6,112.2,281.8,111.7z M284.7,90.5c-0.6-0.4-1.2-0.8-1.6-1.3c-0.5-0.5-0.7-1-0.7-1.4c0-0.6,0.2-1.3,0.5-1.9
			c0.3-0.6,0.8-1.1,1.3-1.4c0.2-0.1,0.6-0.2,1.2-0.2c0.9,0,1.7,0.2,2.6,0.6c0.9,0.4,1.4,0.9,1.6,1.4c0,0.1,0.1,0.3,0.1,0.5
			c0,0.6-0.2,1.2-0.5,1.8c-0.3,0.7-0.8,1.2-1.3,1.7s-1,0.7-1.5,0.7C285.9,91,285.3,90.8,284.7,90.5z"/>
		<path class="st3" d="M300.7,98.2c-0.8,3.6-1.3,6.6-1.5,8.9c1.5-0.7,2.8-1.5,3.7-2.3c1.1,0.4,1.8,0.9,2.4,1.5
			c0.5,0.6,0.8,1.4,0.8,2.2c0,0.6-0.4,1.2-1.2,1.8c-0.8,0.6-1.8,1.1-2.9,1.5c-1.1,0.4-2.1,0.6-2.9,0.6c-0.7,0-1.5-0.2-2.3-0.6
			c-0.9-0.4-1.6-0.9-2.2-1.5c-0.6-0.6-0.9-1-0.9-1.5c0-0.3,0.1-1.1,0.4-2.2s0.5-2.1,0.7-2.9c0.2-0.8,0.4-1.4,0.5-1.8l0.9-3.5
			l-2.2,0.1c-0.4-0.2-0.7-0.5-0.9-0.9c-0.2-0.4-0.3-0.9-0.3-1.4c0-1,0.3-1.8,1-2.4c0.9,0,1.9,0.1,3.2,0.1c0-1.5,0.2-3.2,0.5-5.1
			c0.3-1.9,0.7-2.8,1.1-2.8c0.5,0,1.1,0.2,1.9,0.6c0.8,0.4,1.4,0.9,2,1.5s0.9,1.1,0.9,1.5c0,0.6-0.1,1.1-0.3,1.7
			c-0.2,0.6-0.5,1.3-1,2.3c0.4,0,1.4-0.2,3.1-0.5l0.8-0.1c0.4,0.2,0.8,0.6,1,1c0.2,0.5,0.3,0.9,0.3,1.5c0,0.4-0.1,0.9-0.3,1.3
			c-0.2,0.4-0.4,0.8-0.8,1L300.7,98.2z"/>
		<path class="st3" d="M315.8,98.8c-0.7,0.8-1,1.5-1,2c0,0.3,0.2,0.5,0.7,0.8c0.5,0.3,1.2,0.7,2.3,1.1c1.7,0.8,3,1.5,4,2.1
			c1,0.7,1.4,1.4,1.4,2.3c0,0.9-0.5,1.7-1.5,2.5c-1,0.8-2.2,1.5-3.6,2c-1.4,0.5-2.8,0.8-4,0.8c-0.9,0-1.9-0.2-3-0.6
			c-1-0.4-1.9-0.9-2.6-1.5c-0.7-0.6-1-1.2-1-1.7c0-1,0.3-1.8,1-2.4c0.6-0.6,1.5-0.9,2.5-0.9c0.5,0,1,0.1,1.5,0.2
			c0.4,1.3,0.8,2.2,1,2.8c1.5-0.4,2.8-1,3.9-1.9c-2-0.9-3.9-1.8-5.5-2.9c-1.7-1.1-2.5-2.1-2.5-3c0-1,0.4-2.1,1.3-3.4
			c0.9-1.3,2-2.5,3.4-3.5s2.8-1.5,4.2-1.5c1,0,1.9,0.3,2.8,0.9c0.9,0.6,1.6,1.3,2.2,2.2c0.6,0.9,0.8,1.7,0.8,2.5
			c0,0.8-0.3,1.4-0.9,1.9c-0.6,0.5-1.4,0.7-2.3,0.7c-0.6,0-1.2-0.1-1.8-0.4c0-1-0.3-2.1-0.6-3.5C317.4,97.2,316.5,98,315.8,98.8z"/>
	</g>
	<g>
		<path class="st3" d="M172,128.6c-0.4,0.2-0.7,0.2-0.9,0.2c-0.2,0-0.5-0.1-0.9-0.4c-0.3-0.3-0.6-0.6-0.8-1c-0.2-0.4-0.3-0.7-0.3-1
			c0.1-0.9,0.3-1.8,0.6-2.7c0.3-0.9,0.8-1.7,1.4-2.4c0.6-0.6,1.3-1,2-1c0.4,0,0.8,0.1,1.1,0.3c0.3,0.2,0.6,0.5,0.8,0.8
			c0.2,0.3,0.3,0.7,0.3,1.1c0,0.3-0.1,0.5-0.3,0.6c-0.2,0.2-0.4,0.2-0.7,0.2c-0.2,0-0.5-0.1-0.8-0.2c0-0.2,0-0.3,0-0.4
			c0-0.3,0-0.5-0.1-0.7s-0.2-0.2-0.4-0.2c-0.3,0-0.5,0.3-0.9,0.8c-0.3,0.6-0.6,1.2-0.9,2.1s-0.4,1.6-0.4,2.4c0.8,0,1.7-0.2,2.7-0.6
			l0-0.6c-0.2,0-0.3,0-0.4,0c-0.2,0-0.5,0-0.6-0.1c-0.2,0-0.3-0.1-0.3-0.2c0-0.1,0-0.2,0-0.3c0-0.2,0-0.4,0.1-0.6
			c0.1-0.2,0.1-0.3,0.2-0.4c0.1-0.1,0.2-0.2,0.4-0.3s0.4-0.1,0.7-0.1c0.6,0,1,0.1,1.3,0.4c0.2,0.3,0.4,0.7,0.4,1.2
			c0,0.4-0.1,0.9-0.2,1.6c-0.1,0.7-0.3,1.3-0.5,1.8s-0.4,0.8-0.6,0.8c-0.2,0-0.3,0-0.5-0.1c-0.2-0.1-0.4-0.2-0.5-0.3
			c-0.1-0.1-0.2-0.2-0.2-0.3c0-0.1,0.1-0.3,0.1-0.5s0.2-0.3,0.3-0.5l-0.1-0.1C172.7,128.3,172.4,128.4,172,128.6z"/>
		<path class="st3" d="M181.1,127c0.1,0.2,0.2,0.4,0.2,0.6c0,0.3-0.1,0.6-0.4,0.9c-0.5,0.1-1,0.2-1.6,0.2c-0.6,0.1-1.1,0.1-1.5,0.1
			c-0.2,0-0.3,0-0.4,0c-0.1,0-0.3-0.1-0.6-0.2c-0.2-0.1-0.4-0.3-0.6-0.5c-0.2-0.2-0.3-0.4-0.3-0.5c0-0.1,0.1-0.6,0.3-1.4
			c0.2-0.7,0.3-1.5,0.5-2.2l0.1-0.5c0.2-0.9,0.3-1.6,0.5-2.2c0.1-0.6,0.3-0.9,0.4-0.9c0.2,0,0.4,0.1,0.6,0.2
			c0.3,0.1,0.5,0.3,0.7,0.5c0.2,0.2,0.3,0.3,0.3,0.5c0,0.1,0,0.3-0.1,0.6c-0.1,0.3-0.1,0.5-0.1,0.6c-0.3,0.9-0.5,1.8-0.6,2.4
			c-0.1,0.5-0.3,1.2-0.5,2c0.9-0.1,1.8-0.3,2.7-0.6C180.8,126.6,181,126.8,181.1,127z"/>
		<path class="st3" d="M186.6,120.7c0.5,0.3,0.9,0.6,1.3,1.1s0.5,0.9,0.5,1.4c0,0.8-0.2,1.6-0.6,2.5c-0.4,0.9-0.9,1.6-1.6,2.2
			c-0.6,0.6-1.3,0.9-1.9,0.9c-0.3,0-0.7-0.1-1.1-0.4c-0.4-0.3-0.7-0.6-1-1c-0.3-0.4-0.4-0.7-0.4-1c0-0.5,0.1-1.2,0.4-2.4
			c0.3-1.1,0.5-1.9,0.8-2.5c0.3-0.1,0.5-0.1,0.7-0.1c0.2,0,0.3,0,0.4,0c0-0.3,0.1-0.6,0.2-0.8s0.4-0.4,0.7-0.5
			C185.6,120.3,186.1,120.4,186.6,120.7z M185.7,125.6c0.5-0.8,0.9-1.7,1.1-2.6c-0.2-0.2-0.5-0.3-0.9-0.4c-0.4-0.1-0.7-0.2-1.1-0.2
			c0,0.1,0,0.2,0,0.4c-0.7,1.4-1.1,2.9-1.1,4.4C184.5,126.9,185.1,126.4,185.7,125.6z"/>
		<path class="st3" d="M194.7,125.5c0.3,0.3,0.4,0.6,0.4,0.9c0,0.4-0.2,0.8-0.5,1.2c-0.4,0.4-0.9,0.7-1.5,0.9
			c-0.6,0.2-1.3,0.4-2.1,0.4c-0.2,0-0.5-0.1-0.8-0.3c-0.3-0.2-0.6-0.4-0.8-0.6c-0.2-0.2-0.3-0.4-0.3-0.6c0-0.2,0.2-1,0.5-2.6
			c0.3-1.2,0.4-2,0.5-2.5l-0.4,0.1c-0.3-0.3-0.4-0.6-0.4-0.9c0-0.3,0.1-0.5,0.2-0.7c0.7-0.2,1.3-0.2,1.8-0.2c0.7,0,1.4,0.1,2,0.3
			c0.6,0.2,1.1,0.5,1.5,0.9c0.4,0.4,0.6,0.8,0.6,1.2c0,0.4-0.2,0.9-0.5,1.2s-0.8,0.7-1.4,0.9C194,125,194.4,125.2,194.7,125.5z
			 M192.5,127c0.4-0.2,0.5-0.5,0.5-0.8c0-0.2-0.1-0.3-0.2-0.5s-0.4-0.2-0.6-0.2c-0.2,0-0.5,0-0.8,0l-0.1,0.3
			c-0.2,0.7-0.4,1.2-0.5,1.6C191.6,127.3,192.2,127.2,192.5,127z M193.1,123.9c0.4-0.3,0.5-0.5,0.5-0.9c0-0.2-0.1-0.4-0.4-0.6
			c-0.3-0.2-0.6-0.2-1-0.2c-0.2,0-0.3,0-0.4,0c-0.1,0.4-0.1,0.6-0.1,0.7c-0.1,0.6-0.2,1.1-0.2,1.5
			C192.2,124.3,192.7,124.1,193.1,123.9z"/>
		<path class="st3" d="M201.6,125.8c0,0.1,0,0.5,0.1,1c0.1,0.5,0.1,0.9,0.1,1.3c0,0.4-0.1,0.7-0.2,0.7c0,0-0.1,0-0.2,0
			c-0.2,0-0.4,0-0.7-0.1s-0.5-0.2-0.7-0.3s-0.3-0.3-0.4-0.4c0-0.1,0-0.6,0-1.5c-0.9,0.1-1.4,0.2-1.7,0.2c-0.2,0.6-0.5,1.3-0.7,2.1
			c-0.2,0-0.4,0.1-0.6,0.1c-0.3,0-0.6-0.1-0.8-0.2c-0.2-0.2-0.4-0.4-0.4-0.7l0.2-0.5c0.9-2,1.6-3.6,2.3-4.9s1.1-2,1.3-2
			c0.2,0,0.4,0.1,0.7,0.2c0.3,0.1,0.6,0.2,0.8,0.4s0.4,0.3,0.4,0.4c0.1,0.2,0.1,0.7,0.2,1.4c0.1,0.7,0.2,1.4,0.2,2.1L201.6,125.8z
			 M198.6,124.9c0.4,0,0.7-0.1,1.1-0.1c0-1.1,0-2,0-2.6C199.3,123.1,198.9,124,198.6,124.9z"/>
		<path class="st3" d="M207.8,127c0.1,0.2,0.2,0.4,0.2,0.6c0,0.3-0.1,0.6-0.4,0.9c-0.5,0.1-1,0.2-1.6,0.2c-0.6,0.1-1.1,0.1-1.5,0.1
			c-0.2,0-0.3,0-0.4,0c-0.1,0-0.3-0.1-0.6-0.2c-0.2-0.1-0.4-0.3-0.6-0.5c-0.2-0.2-0.3-0.4-0.3-0.5c0-0.1,0.1-0.6,0.3-1.4
			c0.2-0.7,0.3-1.5,0.5-2.2l0.1-0.5c0.2-0.9,0.3-1.6,0.5-2.2s0.3-0.9,0.4-0.9c0.2,0,0.4,0.1,0.6,0.2c0.3,0.1,0.5,0.3,0.7,0.5
			c0.2,0.2,0.3,0.3,0.3,0.5c0,0.1,0,0.3-0.1,0.6c-0.1,0.3-0.1,0.5-0.1,0.6c-0.3,0.9-0.5,1.8-0.6,2.4c-0.1,0.5-0.3,1.2-0.5,2
			c0.9-0.1,1.8-0.3,2.7-0.6C207.5,126.6,207.6,126.8,207.8,127z"/>
		<path class="st3" d="M218.8,120.7c0.1,0.2,0.1,0.3,0.1,0.5c0,0.2,0,0.3-0.1,0.5c-0.1,0.2-0.1,0.3-0.3,0.4c-0.1,0-0.3,0-0.5,0
			c-0.2,0-0.4,0-0.8,0l-0.6,0c0-0.2-0.1,0.3-0.3,1.6l-0.2,1.4c-0.1,0.5-0.2,1.1-0.3,1.9c-0.1,0.7-0.2,1.1-0.2,1.4
			c-0.1,0.3-0.2,0.4-0.3,0.4c-0.2,0-0.4-0.1-0.7-0.2s-0.5-0.3-0.7-0.5c-0.2-0.2-0.3-0.3-0.3-0.5c0-0.2,0.1-0.7,0.3-1.6
			c0.2-0.8,0.3-1.3,0.3-1.7c0,0,0.1-0.3,0.2-1c0.1-0.6,0.2-1,0.2-1.1l-1.9,0.2c-0.2-0.1-0.3-0.2-0.4-0.4c-0.1-0.2-0.1-0.3-0.1-0.5
			c0-0.3,0.1-0.6,0.4-0.9c0.5-0.1,1-0.1,1.7-0.1c0.7,0,1.1,0,1.2,0c0.8,0,1.5,0,1.8-0.1c0.4,0,0.7-0.1,1-0.1
			C218.6,120.5,218.8,120.6,218.8,120.7z"/>
		<path class="st3" d="M222.5,127.6c-0.4-0.5-0.8-1-1.1-1.7l0,0.5c-0.1,0.8-0.2,1.4-0.2,1.7c-0.1,0.4-0.2,0.6-0.3,0.6
			c-0.2,0-0.4-0.1-0.7-0.2s-0.5-0.3-0.7-0.5c-0.2-0.2-0.3-0.3-0.3-0.5c0-0.2,0.2-1.3,0.6-3.2c0-0.2,0.1-0.6,0.2-1.1
			c0.1-0.5,0.2-0.9,0.2-1.2l-0.4,0.1c-0.2-0.2-0.4-0.5-0.4-0.9c0-0.2,0.1-0.5,0.2-0.8c0.6-0.2,1.3-0.3,2-0.3c0.7,0,1.4,0.1,2,0.3
			c0.6,0.2,1.1,0.5,1.5,0.8s0.6,0.9,0.6,1.4c0,0.7-0.3,1.2-0.8,1.7c-0.5,0.5-1.3,0.8-2.3,1c0.4,0.4,0.8,0.7,1.2,0.9
			c0.4,0.2,0.9,0.4,1.5,0.7c0,0.1,0,0.3,0,0.4c0,0.4-0.1,0.7-0.3,0.9c-0.2,0.2-0.6,0.4-1,0.4C223.5,128.5,223,128.1,222.5,127.6z
			 M223.3,123.9c0.4-0.3,0.6-0.6,0.6-1c0-0.2-0.1-0.4-0.4-0.6c-0.2-0.2-0.6-0.2-1-0.2c-0.1,0-0.3,0-0.5,0c-0.1,0.7-0.2,1.1-0.2,1.1
			c-0.1,0.4-0.1,0.8-0.2,1.2C222.3,124.3,222.9,124.1,223.3,123.9z"/>
		<path class="st3" d="M232,125.8c0,0.1,0,0.5,0.1,1c0.1,0.5,0.1,0.9,0.1,1.3c0,0.4-0.1,0.7-0.2,0.7c0,0-0.1,0-0.2,0
			c-0.2,0-0.4,0-0.7-0.1s-0.5-0.2-0.7-0.3s-0.3-0.3-0.4-0.4c0-0.1,0-0.6,0-1.5c-0.9,0.1-1.4,0.2-1.7,0.2c-0.2,0.6-0.5,1.3-0.7,2.1
			c-0.2,0-0.4,0.1-0.6,0.1c-0.3,0-0.6-0.1-0.8-0.2c-0.2-0.2-0.4-0.4-0.4-0.7l0.2-0.5c0.9-2,1.6-3.6,2.3-4.9s1.1-2,1.3-2
			c0.2,0,0.4,0.1,0.7,0.2c0.3,0.1,0.6,0.2,0.8,0.4s0.4,0.3,0.4,0.4c0.1,0.2,0.1,0.7,0.2,1.4c0.1,0.7,0.2,1.4,0.2,2.1L232,125.8z
			 M229,124.9c0.4,0,0.7-0.1,1.1-0.1c0-1.1,0-2,0-2.6C229.7,123.1,229.4,124,229,124.9z"/>
		<path class="st3" d="M237.1,121c0.8,0.4,1.5,0.9,2,1.5c0.5,0.6,0.7,1.2,0.7,1.9c0,0.6-0.3,1.2-0.8,1.9c-0.5,0.7-1.1,1.3-1.9,1.8
			c-0.7,0.5-1.4,0.7-2,0.7c-0.2,0-0.5-0.1-0.8-0.3c-0.3-0.2-0.6-0.4-0.8-0.7c-0.2-0.3-0.3-0.5-0.3-0.6c0-0.1,0.1-0.5,0.2-1.1
			c0.2-0.6,0.3-1.2,0.4-1.8c0-0.2,0.1-0.6,0.3-1.1c0-0.1,0.1-0.2,0.1-0.4c0.1-0.2,0.1-0.4,0.1-0.6l-0.5,0c-0.1-0.3-0.2-0.5-0.2-0.8
			c0-0.2,0.1-0.5,0.2-0.7s0.3-0.4,0.5-0.5C235.3,120.3,236.2,120.6,237.1,121z M237.1,125.7c0.5-0.6,0.8-1.2,0.8-1.7
			c0-0.3-0.2-0.6-0.6-0.9s-0.8-0.5-1.3-0.6c-0.1,0.5-0.2,1.2-0.4,2.1c-0.2,1.1-0.4,2-0.5,2.6C235.9,126.9,236.6,126.3,237.1,125.7z"
			/>
		<path class="st3" d="M241.1,128.6c-0.3-0.1-0.5-0.3-0.7-0.5c-0.2-0.2-0.3-0.3-0.3-0.5c0-0.1,0-0.4,0.1-0.8
			c0.1-0.4,0.1-0.7,0.2-0.8c0-0.2,0.1-0.5,0.2-0.9c0.1-0.4,0.2-0.8,0.2-1.2l0.1-0.6c0.2-0.9,0.3-1.6,0.4-2.2
			c0.1-0.6,0.3-0.8,0.4-0.8c0.2,0,0.4,0.1,0.6,0.2c0.3,0.1,0.5,0.3,0.7,0.5c0.2,0.2,0.3,0.3,0.3,0.5c0,0.1-0.1,0.4-0.2,1
			c-0.3,1-0.5,1.9-0.6,2.6c-0.1,0.5-0.2,1.1-0.3,1.9c-0.1,0.7-0.2,1.1-0.2,1.4c-0.1,0.3-0.2,0.4-0.3,0.4
			C241.6,128.8,241.4,128.7,241.1,128.6z"/>
		<path class="st3" d="M249.8,120.6c0.3,0.1,0.5,0.3,0.7,0.5c0.2,0.2,0.3,0.3,0.3,0.5c0,0.1-0.1,0.4-0.2,1c-0.3,1-0.5,1.9-0.6,2.6
			c-0.1,0.5-0.2,1.1-0.3,1.9c-0.1,0.7-0.2,1.1-0.2,1.4c-0.1,0.3-0.2,0.4-0.3,0.4c-0.2,0-0.5-0.1-0.8-0.3c-0.3-0.2-0.6-0.4-0.8-0.7
			c-0.1-0.2-0.3-0.5-0.5-0.9c-0.2-0.5-0.4-1-0.6-1.6c-0.2-0.6-0.4-1.1-0.5-1.6l-0.1,1.5c-0.1,0.5-0.2,1.1-0.3,1.9
			c-0.1,0.7-0.2,1.1-0.2,1.4c-0.1,0.3-0.2,0.4-0.3,0.4c-0.2,0-0.4-0.1-0.7-0.2c-0.3-0.1-0.5-0.3-0.7-0.5c-0.2-0.2-0.3-0.3-0.3-0.5
			c0-0.1,0-0.4,0.1-0.8c0.1-0.4,0.1-0.7,0.2-0.8c0-0.2,0.1-0.5,0.2-0.9c0.1-0.4,0.2-0.8,0.2-1.2l0.1-0.6c0.2-0.9,0.3-1.6,0.4-2.2
			c0.1-0.6,0.3-0.8,0.4-0.8s0.3,0.1,0.6,0.2c0.2,0.1,0.5,0.3,0.6,0.4s0.3,0.3,0.4,0.5c0.4,1,0.8,2.4,1.4,4.1l0.1-1.6l0.1-0.6
			c0.2-0.9,0.3-1.6,0.4-2.2c0.1-0.6,0.3-0.8,0.4-0.8C249.4,120.4,249.6,120.5,249.8,120.6z"/>
		<path class="st3" d="M253.9,128.6c-0.4,0.2-0.7,0.2-0.9,0.2c-0.2,0-0.5-0.1-0.9-0.4c-0.3-0.3-0.6-0.6-0.8-1
			c-0.2-0.4-0.3-0.7-0.3-1c0.1-0.9,0.3-1.8,0.6-2.7c0.3-0.9,0.8-1.7,1.4-2.4c0.6-0.6,1.3-1,2-1c0.4,0,0.8,0.1,1.1,0.3
			s0.6,0.5,0.8,0.8c0.2,0.3,0.3,0.7,0.3,1.1c0,0.3-0.1,0.5-0.3,0.6c-0.2,0.2-0.4,0.2-0.7,0.2c-0.2,0-0.5-0.1-0.8-0.2
			c0-0.2,0-0.3,0-0.4c0-0.3,0-0.5-0.1-0.7s-0.2-0.2-0.4-0.2c-0.3,0-0.5,0.3-0.9,0.8c-0.3,0.6-0.6,1.2-0.9,2.1s-0.4,1.6-0.4,2.4
			c0.8,0,1.7-0.2,2.7-0.6l0-0.6c-0.2,0-0.3,0-0.4,0c-0.2,0-0.5,0-0.6-0.1c-0.2,0-0.3-0.1-0.3-0.2c0-0.1,0-0.2,0-0.3
			c0-0.2,0-0.4,0.1-0.6s0.1-0.3,0.2-0.4c0.1-0.1,0.2-0.2,0.4-0.3s0.4-0.1,0.7-0.1c0.6,0,1,0.1,1.3,0.4c0.2,0.3,0.4,0.7,0.4,1.2
			c0,0.4-0.1,0.9-0.2,1.6c-0.1,0.7-0.3,1.3-0.5,1.8s-0.4,0.8-0.6,0.8c-0.2,0-0.3,0-0.5-0.1c-0.2-0.1-0.4-0.2-0.5-0.3
			c-0.1-0.1-0.2-0.2-0.2-0.3c0-0.1,0.1-0.3,0.1-0.5s0.2-0.3,0.3-0.5l-0.1-0.1C254.5,128.3,254.2,128.4,253.9,128.6z"/>
		<path class="st3" d="M267.3,120.7c0.1,0.2,0.1,0.3,0.1,0.5c0,0.2,0,0.3-0.1,0.5c-0.1,0.2-0.1,0.3-0.3,0.4c-0.9,0-1.8,0.1-2.6,0.1
			c0,0.2-0.1,0.5-0.3,1.1c0,0.1-0.1,0.3-0.2,0.8c0.9-0.1,1.5-0.2,2-0.3c0.2,0.1,0.3,0.2,0.4,0.4c0.1,0.2,0.1,0.3,0.1,0.5
			c0,0.2,0,0.3-0.1,0.5c-0.1,0.1-0.2,0.3-0.3,0.4c-0.2,0-0.3,0-0.5,0c-0.1,0-0.3,0-0.4,0l-1.5,0.1c-0.1,0.4-0.1,0.9-0.2,1.5
			c-0.1,0.6-0.1,1-0.2,1.3c-0.1,0.2-0.1,0.4-0.3,0.4c-0.2,0-0.4-0.1-0.7-0.2s-0.5-0.3-0.6-0.5c-0.2-0.2-0.3-0.3-0.3-0.5
			s0-0.4,0.1-0.8s0.2-0.8,0.3-1.3c0.4-1.6,0.6-2.6,0.6-3.2l-0.5,0c-0.2-0.1-0.3-0.2-0.4-0.4s-0.1-0.3-0.1-0.5c0-0.3,0.1-0.6,0.4-0.9
			c1.1,0,2,0,2.9-0.1c0.8,0,1.5-0.1,2.1-0.2C267.1,120.5,267.2,120.6,267.3,120.7z"/>
		<path class="st3" d="M272,120.7c0.5,0.3,0.9,0.6,1.3,1.1s0.5,0.9,0.5,1.4c0,0.8-0.2,1.6-0.6,2.5c-0.4,0.9-0.9,1.6-1.6,2.2
			c-0.6,0.6-1.3,0.9-1.9,0.9c-0.3,0-0.7-0.1-1.1-0.4c-0.4-0.3-0.7-0.6-1-1c-0.3-0.4-0.4-0.7-0.4-1c0-0.5,0.1-1.2,0.4-2.4
			c0.3-1.1,0.5-1.9,0.8-2.5c0.3-0.1,0.5-0.1,0.7-0.1c0.2,0,0.3,0,0.4,0c0-0.3,0.1-0.6,0.2-0.8c0.2-0.2,0.4-0.4,0.7-0.5
			C271,120.3,271.5,120.4,272,120.7z M271.1,125.6c0.5-0.8,0.9-1.7,1.1-2.6c-0.2-0.2-0.5-0.3-0.9-0.4c-0.4-0.1-0.7-0.2-1.1-0.2
			c0,0.1,0,0.2,0,0.4c-0.7,1.4-1.1,2.9-1.1,4.4C269.9,126.9,270.6,126.4,271.1,125.6z"/>
		<path class="st3" d="M279,120.7c0.5,0.3,0.9,0.6,1.3,1.1s0.5,0.9,0.5,1.4c0,0.8-0.2,1.6-0.6,2.5c-0.4,0.9-0.9,1.6-1.6,2.2
			c-0.6,0.6-1.3,0.9-1.9,0.9c-0.3,0-0.7-0.1-1.1-0.4c-0.4-0.3-0.7-0.6-1-1c-0.3-0.4-0.4-0.7-0.4-1c0-0.5,0.1-1.2,0.4-2.4
			c0.3-1.1,0.5-1.9,0.8-2.5c0.3-0.1,0.5-0.1,0.7-0.1c0.2,0,0.3,0,0.4,0c0-0.3,0.1-0.6,0.2-0.8c0.2-0.2,0.4-0.4,0.7-0.5
			C277.9,120.3,278.5,120.4,279,120.7z M278.1,125.6c0.5-0.8,0.9-1.7,1.1-2.6c-0.2-0.2-0.5-0.3-0.9-0.4c-0.4-0.1-0.7-0.2-1.1-0.2
			c0,0.1,0,0.2,0,0.4c-0.7,1.4-1.1,2.9-1.1,4.4C276.9,126.9,277.5,126.4,278.1,125.6z"/>
		<path class="st3" d="M285.1,121c0.8,0.4,1.5,0.9,2,1.5c0.5,0.6,0.7,1.2,0.7,1.9c0,0.6-0.3,1.2-0.8,1.9c-0.5,0.7-1.1,1.3-1.9,1.8
			c-0.7,0.5-1.4,0.7-2,0.7c-0.2,0-0.5-0.1-0.8-0.3c-0.3-0.2-0.6-0.4-0.8-0.7c-0.2-0.3-0.3-0.5-0.3-0.6c0-0.1,0.1-0.5,0.2-1.1
			c0.2-0.6,0.3-1.2,0.4-1.8c0-0.2,0.1-0.6,0.3-1.1c0-0.1,0.1-0.2,0.1-0.4c0.1-0.2,0.1-0.4,0.1-0.6l-0.5,0c-0.1-0.3-0.2-0.5-0.2-0.8
			c0-0.2,0.1-0.5,0.2-0.7c0.1-0.2,0.3-0.4,0.5-0.5C283.4,120.3,284.2,120.6,285.1,121z M285.1,125.7c0.5-0.6,0.8-1.2,0.8-1.7
			c0-0.3-0.2-0.6-0.6-0.9c-0.4-0.3-0.8-0.5-1.3-0.6c-0.1,0.5-0.2,1.2-0.4,2.1c-0.2,1.1-0.4,2-0.5,2.6
			C283.9,126.9,284.6,126.3,285.1,125.7z"/>
	</g>
</g>
</svg>
