<svg xmlns="http://www.w3.org/2000/svg" viewBox="0 0 148.3 144.8"><path d="M146.4 57.5c1.7.5 2.1 2.5 1.3 4.6 0 0-.5 1.9-2.4 4.5-1.8 2.6-5 5.8-10.1 8.5 5.7-4.2 2.9-9.9 6.3-15.3 1-1.7 2.9-2.8 4.5-2.3h.4z" fill="#f1605b"/><path d="M134.1 37.9c0 .5-.4 5.1-14.3 5.9 7.9-9.1 14.1-8.5 14.3-5.9z" fill="#fec713"/><path d="M129.6 81.7s4.3 10.3 2.3 23.7c0 0-.9.7-2.7 1.9-7 4.7-26.9 16.5-53.9 18.1-8.7.5-18.1 0-28-2.2 0 0-2.6-3.6-4.6-10.3 0 0 7.9 2.3 19.9 2.1 17.7-.3 44.2-6.2 67-33.3z" fill="#f1605b"/><path d="M122 68.7s-.5.6-1.6 1.5c-5.7 5.4-26.7 23.4-58.6 30.8-6.6 1.5-13.7 2.6-21.2 3 0 0-1.2-7.2.6-14.9 0 0 11.8-1.2 26.5-6.4 13.1-4.6 28.5-12.5 39.8-25.5.1.1 8.6 2.5 14.5 11.5zm-6.4-42.9v1c0 3-1 12.1-11.9 20.7 6.5-7.6-1.9-14.5.1-23.2.5-2.7 3-4.7 5.8-4.5h.7c3.2.3 5.2 2.9 5.3 6z" fill="#f6a81c"/><path d="M129.2 107.4s-26.1 25.5-44.7 29.5c-13.4 0-24.2-2.8-27.3-3.7 5.9 1.1 18.2-7.6 18.2-7.6 26.9-1.7 46.8-13.5 53.8-18.2z" fill="#4d2f49"/><path d="M106.3.5c1 .4 1.2 1.7.6 3 0 0-.5 1.2-1.8 2.7-1.3 1.5-3.4 3.4-6.9 4.8 3.8-2.4 2.3-6.1 4.8-9.4.7-1.1 2-1.6 3-1.2l.3.1z" fill="#f1605b"/><path d="M120.5 70.2c-.4.5-25.6 34.2-57.8 44.8-12 .2-19.9-2.1-19.9-2.1 8.8-2.4 19.1-11.9 19.1-11.9 31.8-7.4 52.9-25.4 58.6-30.8z" fill="#7a254b"/><path d="M88.3 51.7c-.2.5-6.9 13-29.4 19.2-3.5 1-7.3 1.8-11.6 2.4 0 0 12.2-22 41-21.6z" fill="#fec713"/><path d="M74.6 33.9c-.2.4-3.5 7.1-2.4 13.1C57.7 40.1 65.1 24.8 90.4.9c-10.7 14.6 12.4 43.4-15.3 45.9.1 0-2.1-6.7-.5-12.9z" fill="#78be43"/><path d="M120.5 128.6s-27.9 32.9-64.2 4.3c.1 0 .4.1.9.3 3.1.9 13.9 3.7 27.3 3.7 11.2 0 24.1-1.9 36-8.3z" fill="#c71d5e"/><path d="M88.3 51.8c-.2.6-6.2 18.4-20.5 31-14.7 5.2-26.5 6.4-26.5 6.4C57.1 77.6 58.9 71 58.9 71c22.6-6.2 29.2-18.8 29.4-19.2z" fill="#e37a3f"/><path d="M64.3 52.2S59.9 39 50.2 35.5c0 0-.6-5.9 3.8-6.6 0 0 8.7 3.7 10.3 23.3z" fill="#684323"/><path d="M51.2 3.3c6.6 3.3-2.8 7.8 1.3 13.1-8.9-5.9-4.3-14.5-1.3-13.1z" fill="#fec713"/><path d="M38.9 81.9c-16.2 0-21.2-11.2-21.2-11.2-1.3-2.9-.6-6.1 2.1-7.6l.6-.4c2.5-1.4 5.6-.7 7.2 1.5 5.6 7 2.2 13.7 11.3 17.7zm-3.5 27.6c-12.1 3.6-16.9-2-15.5-5.1 0 0 .7-1.6 3.3-1.6 2.2 0 6 1.3 12.2 6.7z" fill="#f6a81c"/><path d="M26.5 28.9c.7 0 5.1.5 6.4 14.1-9.4-7.6-9.1-13.8-6.4-14.1-.1 0-.1 0 0 0z" fill="#f1605b"/><path d="M2 80.1c7.3-.7 1.7 8.1 8 10.5-10.7-.5-11.3-10.1-8-10.5z" fill="#fec713"/><circle cx="73.9" cy="58.9" r="1.4" fill="#181818"/><circle cx="107.3" cy="64.9" r="1.4" fill="#181818"/><circle cx="109.7" cy="72.6" r="1.4" fill="#181818"/><circle cx="94.4" cy="75.3" r="1.4" fill="#181818"/><circle cx="124.8" cy="105.6" r="1.4" fill="#181818"/><circle cx="126" cy="93.6" r="1.4" fill="#181818"/><circle cx="118.7" cy="98.4" r="1.4" fill="#181818"/><circle cx="114.5" cy="109.9" r="1.4" fill="#181818"/></svg>